<svg id="Layer_1" data-name="Layer 1" xmlns="http://www.w3.org/2000/svg" viewBox="0 0 767.4 181.83"><defs><style>.cls-1{fill:#fff;}</style></defs><title>logo_group</title><path class="cls-1" d="M56.83,16.73q-19.63,0-29.76,8.52T16.94,51.15v5.63Q16.94,75,26,83.07T53.62,91.2h9.33a10.79,10.79,0,0,1,7.24,2.33A8.1,8.1,0,0,1,72.92,100v3.06q0,5.63-4.34,7.8t-13.35,2.17q-17.77,0-31.37-1a4.78,4.78,0,0,0-5.14,4.78v13a4.8,4.8,0,0,0,3.75,4.69,133.43,133.43,0,0,0,14.18,2.3,180.34,180.34,0,0,0,20,1.13q14.15,0,23.32-2.9a25.61,25.61,0,0,0,14.23-10.7q5.07-7.8,5.07-22.11v-6q0-14.15-8.44-22.84T66.48,64.82H55.38q-12.06,0-12.06-10V52.6q0-6.27,4.18-8.61t12.71-2.33h2.68a4.84,4.84,0,0,0,4.84-4.84V21.69a4.82,4.82,0,0,0-4.6-4.8Q59.93,16.73,56.83,16.73Z" transform="translate(-16.94 -11.55)"/><path class="cls-1" d="M230.42,130.84,197,21.09a4.8,4.8,0,0,0-4.59-3.4H164.78a4.8,4.8,0,0,0-4.59,3.4L126.76,130.84a4.8,4.8,0,0,0,4.59,6.2h18.49a4.8,4.8,0,0,0,4.63-3.53l3.8-13.85,8.58-33.14h0l.93-3.64,6-23.25a4.8,4.8,0,0,1,9.3,0L190,86.51h0l8.26,31.75,4.3,15.28a4.8,4.8,0,0,0,4.62,3.5h18.68A4.8,4.8,0,0,0,230.42,130.84Z" transform="translate(-16.94 -11.55)"/><path class="cls-1" d="M336.38,37.82V22.49a4.8,4.8,0,0,0-4.8-4.8H250.79a4.8,4.8,0,0,0-4.8,4.8V37.82a4.8,4.8,0,0,0,4.8,4.8h21.76a4.8,4.8,0,0,1,4.8,4.8v41a4.8,4.8,0,0,0,4.8,4.8h18.07a4.8,4.8,0,0,0,4.8-4.8v-41a4.8,4.8,0,0,1,4.8-4.8h21.76A4.8,4.8,0,0,0,336.38,37.82Z" transform="translate(-16.94 -11.55)"/><path class="cls-1" d="M431.44,98q0,15-19.62,15Q392,112.91,392,98V22.49a4.8,4.8,0,0,0-4.8-4.8H369a4.8,4.8,0,0,0-4.8,4.8V98.11q0,22.68,12.55,31.2t35.06,8.53q22.52,0,35-8.53t12.46-31.2V50.18a4.8,4.8,0,0,0-4.8-4.8H436.24a4.8,4.8,0,0,0-4.8,4.8Z" transform="translate(-16.94 -11.55)"/><path class="cls-1" d="M551.4,94a4.84,4.84,0,0,1,1.81-6,31,31,0,0,0,9.18-9.32Q567,71.41,567,56.94q0-21.71-9.25-30.48t-25.81-8.77H515.24a4.8,4.8,0,0,0-4.8,4.8V37.82a4.8,4.8,0,0,0,4.8,4.8h11.69q6.11,0,9.17,3.14t3.06,11.34q0,8.37-3.06,11.82t-9.17,3.46H515.24a4.8,4.8,0,0,0-4.8,4.8V89.63a4.81,4.81,0,0,0,4.79,4.8q3.81,0,6.5.07A4.78,4.78,0,0,1,526,97.43l15.41,36.66a4.8,4.8,0,0,0,4.42,2.94h17.66a4.8,4.8,0,0,0,4.37-6.79Z" transform="translate(-16.94 -11.55)"/><path class="cls-1" d="M660.42,75.91,625,19.93A4.8,4.8,0,0,0,621,17.69H606.36a4.8,4.8,0,0,0-4.8,4.8V132.24a4.8,4.8,0,0,0,4.8,4.8h18.07a4.8,4.8,0,0,0,4.8-4.8V81.51a4.8,4.8,0,0,1,8.85-2.57l35.41,55.86a4.8,4.8,0,0,0,4.05,2.23H692.3a4.8,4.8,0,0,0,4.8-4.8V50.18a4.8,4.8,0,0,0-4.8-4.8H674.08a4.8,4.8,0,0,0-4.8,4.8V73.34A4.8,4.8,0,0,1,660.42,75.91Z" transform="translate(-16.94 -11.55)"/><path class="cls-1" d="M763.4,108.66,747,82.81a1.84,1.84,0,0,0-1.55-.86h-6.93a1.84,1.84,0,0,0-1.84,1.84v49.32a1.84,1.84,0,0,0,1.84,1.84h8.61a1.84,1.84,0,0,0,1.84-1.84V109.29a1.84,1.84,0,0,1,3.39-1l16.35,25.79a1.84,1.84,0,0,0,1.55.85h7a1.84,1.84,0,0,0,1.84-1.84v-37a1.84,1.84,0,0,0-1.84-1.84h-8.68a1.84,1.84,0,0,0-1.84,1.84v11.59A1.84,1.84,0,0,1,763.4,108.66Z" transform="translate(-16.94 -11.55)"/><path class="cls-1" d="M742.41,11.55h-8.71a1.84,1.84,0,0,0-1.83,1.62L726.1,62.5a1.84,1.84,0,0,0,1.83,2.05h8.22A1.84,1.84,0,0,0,738,62.92l2.25-19.49a1.84,1.84,0,0,1,3.61-.25h0a1.84,1.84,0,0,0,1.78,1.38h5.5a1.84,1.84,0,0,0,1.76-2.36l-8.7-29.34A1.84,1.84,0,0,0,742.41,11.55Z" transform="translate(-16.94 -11.55)"/><path class="cls-1" d="M776.65,11.55h-8.56a1.84,1.84,0,0,0-1.76,1.32l-8.64,29.34a1.84,1.84,0,0,0,1.76,2.36h5.15a1.84,1.84,0,0,0,1.78-1.38l.12-.46a1.84,1.84,0,0,1,3.61.23l2.41,20a1.84,1.84,0,0,0,1.83,1.62h8.16a1.84,1.84,0,0,0,1.83-2.06l-5.85-49.32A1.84,1.84,0,0,0,776.65,11.55Z" transform="translate(-16.94 -11.55)"/><path class="cls-1" d="M619.13,172.3a2.63,2.63,0,0,1,.75,1.95v12.4a2.33,2.33,0,0,1-.83,1.92,20.12,20.12,0,0,1-22.85,1.76A19.77,19.77,0,0,1,589,182.8a21.36,21.36,0,0,1-2.65-10.53A21.11,21.11,0,0,1,589,161.82a20,20,0,0,1,7.24-7.52,19.23,19.23,0,0,1,10.14-2.77,20.15,20.15,0,0,1,6.82,1A20.47,20.47,0,0,1,619,156a2.45,2.45,0,0,1,.83,1,3,3,0,0,1,.21,1.17,2.2,2.2,0,0,1-.75,1.71,2.59,2.59,0,0,1-1.79.67,2.75,2.75,0,0,1-1.76-.67,15.11,15.11,0,0,0-4.15-2.62,14.39,14.39,0,0,0-5.24-.8,13.76,13.76,0,0,0-7.44,2.13,15.38,15.38,0,0,0-5.39,5.78,16.92,16.92,0,0,0,0,15.95A15.42,15.42,0,0,0,598.9,186a13.75,13.75,0,0,0,7.44,2.13,15.1,15.1,0,0,0,8.35-2.59v-9.23h-7.16a2.8,2.8,0,0,1-1.95-.67,2.32,2.32,0,0,1,0-3.42,2.8,2.8,0,0,1,1.95-.67h9.7A2.57,2.57,0,0,1,619.13,172.3Z" transform="translate(-16.94 -11.55)"/><path class="cls-1" d="M655.31,190.11a2.36,2.36,0,0,1-.7,1.74,2.56,2.56,0,0,1-1.89.7,2.62,2.62,0,0,1-2.33-1.3l-8.92-14.32h-7.57v12.92a2.66,2.66,0,0,1-.75,1.92,2.71,2.71,0,0,1-4.64-1.92V154.74a2.59,2.59,0,0,1,.78-1.95,2.66,2.66,0,0,1,1.92-.75h9.34a14.46,14.46,0,0,1,6.87,1.61,11.65,11.65,0,0,1,4.72,4.51,13,13,0,0,1,1.69,6.64,11.58,11.58,0,0,1-7,10.84l7.94,12.76A3.19,3.19,0,0,1,655.31,190.11ZM640.53,172a8.5,8.5,0,0,0,5.81-2,6.54,6.54,0,0,0,2.28-5.16,7.4,7.4,0,0,0-2.28-5.6,8.07,8.07,0,0,0-5.81-2.18h-6.64V172Z" transform="translate(-16.94 -11.55)"/><path class="cls-1" d="M690.66,154.17a18.74,18.74,0,0,1,7.31,7.37,23.37,23.37,0,0,1,0,21.5,18.73,18.73,0,0,1-7.29,7.39,23,23,0,0,1-21.4,0A18.5,18.5,0,0,1,662,183a23.58,23.58,0,0,1,0-21.5,18.55,18.55,0,0,1,7.29-7.37,22.91,22.91,0,0,1,21.37,0ZM672,158.47a14.6,14.6,0,0,0-5.47,5.71,17.59,17.59,0,0,0,0,16.18,14.71,14.71,0,0,0,5.5,5.73,16,16,0,0,0,15.87,0,14.73,14.73,0,0,0,5.5-5.73,17.59,17.59,0,0,0,0-16.18,14.61,14.61,0,0,0-5.47-5.71,16.31,16.31,0,0,0-15.92,0Z" transform="translate(-16.94 -11.55)"/><path class="cls-1" d="M709.82,152.79a2.69,2.69,0,0,1,4.62,1.95V179a8.57,8.57,0,0,0,1.48,4.93,9.83,9.83,0,0,0,4.1,3.4,14,14,0,0,0,6,1.22,13.15,13.15,0,0,0,5.76-1.22,9.57,9.57,0,0,0,4-3.4,8.8,8.8,0,0,0,1.43-4.93V154.74a2.59,2.59,0,0,1,.78-1.95,2.66,2.66,0,0,1,1.92-.75,2.57,2.57,0,0,1,1.89.75,2.64,2.64,0,0,1,.75,1.95V179a13.54,13.54,0,0,1-2.1,7.44,14.15,14.15,0,0,1-5.86,5.14,19.16,19.16,0,0,1-8.53,1.84,20.2,20.2,0,0,1-8.79-1.84,14.46,14.46,0,0,1-6-5.11A13.27,13.27,0,0,1,709,179V154.74A2.59,2.59,0,0,1,709.82,152.79Z" transform="translate(-16.94 -11.55)"/><path class="cls-1" d="M757.52,191.77a2.71,2.71,0,0,1-4.64-1.92V154.74a2.59,2.59,0,0,1,.78-1.95,2.66,2.66,0,0,1,1.92-.75h10.37a13.75,13.75,0,0,1,6.87,1.71,12.05,12.05,0,0,1,4.72,4.77,14.17,14.17,0,0,1,1.69,7,13.38,13.38,0,0,1-1.69,6.74,11.89,11.89,0,0,1-4.72,4.62,14.08,14.08,0,0,1-6.87,1.66h-7.68v11.36A2.66,2.66,0,0,1,757.52,191.77Zm14.24-20.52a7.78,7.78,0,0,0,2.28-5.78,8.43,8.43,0,0,0-2.28-6.07,7.69,7.69,0,0,0-5.81-2.39h-7.68v16.49h7.68A7.92,7.92,0,0,0,771.76,171.26Z" transform="translate(-16.94 -11.55)"/></svg>