<svg id="Layer_1" data-name="Layer 1" xmlns="http://www.w3.org/2000/svg" viewBox="0 0 1897.5 301.2"><defs><style>.cls-1{fill:#fff;}</style></defs><title>logo</title><path class="cls-1" d="M112.43,11.53q-48.68,0-73.8,21.14T13.5,96.9v14Q13.5,156,36,176.09t68.42,20.15h23.14q11.16,0,18,5.78t6.78,16.16v7.58q0,14-10.77,19.35t-33.11,5.38q-44.08,0-77.82-2.51a11.86,11.86,0,0,0-12.74,11.86v32.34a11.91,11.91,0,0,0,9.31,11.64,331,331,0,0,0,35.17,5.71A447.29,447.29,0,0,0,112,312.32q35.1,0,57.84-7.18t35.31-26.53q12.57-19.34,12.57-54.85V209q0-35.1-20.94-56.65t-60.44-21.54H108.84q-29.92,0-29.92-24.73V100.5q0-15.56,10.37-21.34t31.52-5.79h6.65a12,12,0,0,0,12-12V23.85a12,12,0,0,0-11.41-11.92Q120.12,11.54,112.43,11.53Z" transform="translate(-13.5 -11.12)"/><path class="cls-1" d="M543,294.56,460.08,22.36a11.9,11.9,0,0,0-11.39-8.44H380.16a11.9,11.9,0,0,0-11.39,8.44l-82.91,272.2a11.9,11.9,0,0,0,11.39,15.37h45.86a11.9,11.9,0,0,0,11.48-8.76L364,266.81l21.28-82.21h.09l2.32-9,14.8-57.66c3.06-11.93,20-11.93,23.06,0l17.11,66.7h0l20.48,78.75,10.67,37.9a11.9,11.9,0,0,0,11.46,8.68H531.6A11.9,11.9,0,0,0,543,294.56Z" transform="translate(-13.5 -11.12)"/><path class="cls-1" d="M805.79,63.86v-38a11.9,11.9,0,0,0-11.9-11.9H593.5a11.9,11.9,0,0,0-11.9,11.9v38a11.9,11.9,0,0,0,11.9,11.9h54a11.9,11.9,0,0,1,11.9,11.9V189.45a11.9,11.9,0,0,0,11.9,11.9H716.1a11.9,11.9,0,0,0,11.9-11.9V87.67a11.9,11.9,0,0,1,11.9-11.9h54A11.9,11.9,0,0,0,805.79,63.86Z" transform="translate(-13.5 -11.12)"/><path class="cls-1" d="M1041.57,213q0,37.1-48.67,37.1-49.07,0-49.07-37.1V25.83a11.9,11.9,0,0,0-11.9-11.9H886.72a11.9,11.9,0,0,0-11.9,11.9V213.39q0,56.24,31.12,77.39t87,21.14q55.85,0,86.77-21.14t30.92-77.39V94.5a11.9,11.9,0,0,0-11.9-11.9h-45.21a11.9,11.9,0,0,0-11.9,11.9Z" transform="translate(-13.5 -11.12)"/><path class="cls-1" d="M1339.11,203.22a12,12,0,0,1,4.49-15,77,77,0,0,0,22.77-23.11q11.37-18,11.37-53.85,0-53.85-22.94-75.6t-64-21.74h-41.37a11.9,11.9,0,0,0-11.9,11.9v38a11.9,11.9,0,0,0,11.9,11.9h29q15.16,0,22.74,7.78t7.58,28.12q0,20.75-7.58,29.32t-22.74,8.58h-29a11.9,11.9,0,0,0-11.9,11.9v30.88a11.93,11.93,0,0,0,11.87,11.9q9.46,0,16.12.17a11.85,11.85,0,0,1,10.71,7.29l38.23,90.93a11.9,11.9,0,0,0,11,7.29h43.8a11.9,11.9,0,0,0,10.83-16.84Z" transform="translate(-13.5 -11.12)"/><path class="cls-1" d="M1609.51,158.32,1521.68,19.47a11.9,11.9,0,0,0-10.06-5.54h-36.19a11.9,11.9,0,0,0-11.9,11.9V298a11.9,11.9,0,0,0,11.9,11.9h44.81a11.9,11.9,0,0,0,11.9-11.9V172.22c0-11.92,15.58-16.44,22-6.37l87.83,138.55a11.9,11.9,0,0,0,10.05,5.53h36.6a11.9,11.9,0,0,0,11.9-11.9V94.5a11.9,11.9,0,0,0-11.9-11.9h-45.21a11.9,11.9,0,0,0-11.9,11.9V152C1631.47,163.88,1615.88,168.4,1609.51,158.32Z" transform="translate(-13.5 -11.12)"/><path class="cls-1" d="M1861.15,242.19l-38.91-61.52a4.38,4.38,0,0,0-3.7-2H1802a4.38,4.38,0,0,0-4.38,4.38V300.38a4.38,4.38,0,0,0,4.38,4.38h20.48a4.38,4.38,0,0,0,4.38-4.38v-56.7a4.38,4.38,0,0,1,8.07-2.34l38.91,61.38a4.38,4.38,0,0,0,3.7,2h16.67a4.38,4.38,0,0,0,4.38-4.38V212.27a4.38,4.38,0,0,0-4.38-4.38H1873.6a4.38,4.38,0,0,0-4.38,4.38v27.58A4.38,4.38,0,0,1,1861.15,242.19Z" transform="translate(-13.5 -11.12)"/><path class="cls-1" d="M1811.23,11.12h-20.72a4.38,4.38,0,0,0-4.35,3.87L1772.4,132.36a4.38,4.38,0,0,0,4.35,4.89h19.57a4.38,4.38,0,0,0,4.35-3.87L1806,87a4.38,4.38,0,0,1,8.58-.59h0a4.38,4.38,0,0,0,4.24,3.28h13.09a4.38,4.38,0,0,0,4.2-5.62l-20.7-69.81A4.38,4.38,0,0,0,1811.23,11.12Z" transform="translate(-13.5 -11.12)"/><path class="cls-1" d="M1892.7,11.12h-20.38a4.38,4.38,0,0,0-4.2,3.14l-20.57,69.81a4.38,4.38,0,0,0,4.2,5.61H1864a4.38,4.38,0,0,0,4.24-3.29l.28-1.1a4.38,4.38,0,0,1,8.58.56l5.74,47.55a4.38,4.38,0,0,0,4.34,3.85h19.41a4.38,4.38,0,0,0,4.35-4.89L1897,15A4.38,4.38,0,0,0,1892.7,11.12Z" transform="translate(-13.5 -11.12)"/></svg>